<?xml version="1.0" encoding="UTF-8" standalone="no"?>
<svg xmlns="http://www.w3.org/2000/svg" width="800" height="800" viewBox="0 0 800 800">
  <!-- Disco de vinilo negro con detalles -->
  <circle cx="400" cy="400" r="380" fill="#111111" />
  <circle cx="400" cy="400" r="370" fill="#222222" />
  <circle cx="400" cy="400" r="180" fill="#111111" />
  <circle cx="400" cy="400" r="175" fill="#333333" />
  <circle cx="400" cy="400" r="170" fill="#444444" />
  <circle cx="400" cy="400" r="50" fill="#111111" />
  <circle cx="400" cy="400" r="45" fill="#666666" />
  <circle cx="400" cy="400" r="20" fill="#111111" />
  
  <!-- Surcos del vinilo (círculos concéntricos) -->
  <circle cx="400" cy="400" r="360" fill="none" stroke="#333333" stroke-width="1" />
  <circle cx="400" cy="400" r="340" fill="none" stroke="#333333" stroke-width="1" />
  <circle cx="400" cy="400" r="320" fill="none" stroke="#333333" stroke-width="1" />
  <circle cx="400" cy="400" r="300" fill="none" stroke="#333333" stroke-width="1" />
  <circle cx="400" cy="400" r="280" fill="none" stroke="#333333" stroke-width="1" />
  <circle cx="400" cy="400" r="260" fill="none" stroke="#333333" stroke-width="1" />
  <circle cx="400" cy="400" r="240" fill="none" stroke="#333333" stroke-width="1" />
  <circle cx="400" cy="400" r="220" fill="none" stroke="#333333" stroke-width="1" />
  <circle cx="400" cy="400" r="200" fill="none" stroke="#333333" stroke-width="1" />
  
  <!-- Brillo en el borde superior para dar efecto 3D -->
  <path d="M 400,20 A 380,380 0 0,1 780,400" fill="none" stroke="#666666" stroke-width="5" opacity="0.3" />
</svg>
